<svg class="icon" viewBox="0 0 1024 1024" xmlns="http://www.w3.org/2000/svg" width="200" height="200"><defs><style/></defs><path d="M517.87 148.093c-19.66 0-38.922 1.65-57.73 4.688 8.249 3.106 18.546 4.778 32.586 4.107 48.31-2.298 78.245 6.906 43.702 20.73s-28.114 28.502-11.992 29.651c16.122 1.15 53.703-16.054 66.173-.922 12.868 15.622-14.438 41.245 1.843 68.927 24.224 41.199-58.63 50.631-79.565 81.522-20.195 29.798-31.584 61.713-8.556 104.493 23.029 42.78 28.445 16.942 68.938 21.63 79.827 9.238 55.933 71.736 154.283 91.306 37.626 7.487 11.765 89.225-54.26 128.614-63.637 37.957-43.543 81.5-133.974 110.536-21.732 6.974-38.263 2.97-21.447-21.209 32.62-46.887 29.787-99.146 0-122.538-29.787-23.393-63.18-28.49-55.125-64.512 8.055-36.022 39.23-48.629 41.449-81.01 2.139-31.232-47.411-137.535-109.34-116.486-35.374 12.027-103.789-32.973-100.17-91.898 4.198-68.46 56.638-78.95 44.862-119.672-.034-.113.011-.261 0-.386-107.577 61.85-180.076 177.846-180.076 310.84 0 197.94 160.46 358.4 358.4 358.4s358.4-160.46 358.4-358.4-160.46-358.41-358.4-358.41z"/></svg>