<svg class="icon" viewBox="0 0 1024 1024" xmlns="http://www.w3.org/2000/svg" width="200" height="200"><defs><style/></defs><path d="M720.545 402.905l-84.468-84.462c-6.951-6.957-18.841-2.032-18.841 7.8v65.626c0 6.096-4.939 11.036-11.037 11.036H282.375c-6.093 0-11.036 4.939-11.036 11.037v29.581c0 6.093 4.938 11.037 11.036 11.037h463.178c9.831 0 14.755-11.89 7.805-18.84l-32.813-32.815zm0 0M307.317 621.09l84.468 84.467c6.951 6.95 18.841 2.032 18.841-7.804v-65.627c0-6.093 4.944-11.036 11.037-11.036h323.84c6.095 0 11.04-4.94 11.04-11.037v-29.577c0-6.096-4.945-11.037-11.04-11.037H282.308c-9.835 0-14.755 11.885-7.801 18.841l32.81 32.81zm0 0"/><path d="M513.929 947.107c-239.914 0-435.105-195.187-435.105-435.11 0-239.913 195.19-435.104 435.105-435.104 239.917 0 435.109 195.19 435.109 435.104 0 239.923-195.19 435.11-435.11 435.11zm0-834.501c-220.224 0-399.393 179.164-399.393 399.39 0 220.225 179.164 399.397 399.393 399.397 220.228 0 399.396-179.172 399.396-399.396.001-220.223-179.168-399.391-399.396-399.391zm0 0"/></svg>