<svg class="icon" viewBox="0 0 1024 1024" xmlns="http://www.w3.org/2000/svg" width="200" height="200"><defs><style/></defs><path d="M150.13 624.482L686.388 88.315c31.737-31.76 71.738-32.33 101.89-2.155l149.619 149.59c30.165 30.182 29.588 70.124-2.172 101.89L399.492 873.813l-283.47 83.968c-39.259 9.165-59.006-10.57-49.853-49.877l83.962-283.423zm55.423 44.338l-61.967 211.545 211.585-61.96L205.553 668.82zm673.525-358.708c25.922-25.703 24.268-25.326-2.766-52.72L765.298 146.392c-26.41-27.982-28.918-28.335-52.726-2.79l-58.27 58.275 166.506 166.489 58.27-58.253M404.56 784.56L779.184 410 612.661 243.501 238.054 618.067C254.181 634.23 347.591 727.574 404.56 784.56"/></svg>