<svg class="icon" viewBox="0 0 1024 1024" xmlns="http://www.w3.org/2000/svg" width="200" height="200"><defs><style/></defs><path d="M1010.02 316.082L767.716 558.384a41.278 41.278 0 0 1-61.091 0L465.149 316.082a41.278 41.278 0 0 1 0-60.679L707.451 13.514a41.278 41.278 0 0 1 61.092 0l241.476 242.715a41.278 41.278 0 0 1 0 59.853z"/><path d="M386.308 1022.762H42.05A41.278 41.278 0 0 1 .772 981.484v-344.26a41.278 41.278 0 0 1 41.278-41.277h342.607a41.278 41.278 0 0 1 41.278 41.278v343.02a41.278 41.278 0 0 1-41.278 41.278zm0-513.912H42.05A41.278 41.278 0 0 1 .772 467.572V124.14A41.278 41.278 0 0 1 42.05 82.861h342.607a41.278 41.278 0 0 1 41.278 41.278v342.608a41.278 41.278 0 0 1-41.278 41.278zm171.304 85.859H900.22a41.278 41.278 0 0 1 41.278 41.278v343.02a41.278 41.278 0 0 1-41.278 41.278H557.612a41.278 41.278 0 0 1-41.278-41.278V637.225a41.278 41.278 0 0 1 41.278-41.278z"/></svg>