<svg class="icon" viewBox="0 0 1024 1024" xmlns="http://www.w3.org/2000/svg" width="200" height="200"><defs><style/></defs><path d="M779.795 507.524h62.496l.928-154.572-109.881-64.324v84.566l47.159 26.188zM249.357 408.955v-10.32l40.902-22.217v-84.726l-100.703 57.339-.948 157.527h60.082zM410.215 791.017v73.321l.022.554 103.147 45.031 102.752-43.761v-74.985l-102.411 41.748zM368.667 237.475c0 78.807 63.885 142.694 142.694 142.694s142.694-63.885 142.694-142.694c0-78.807-63.885-142.694-142.694-142.694-78.807 0-142.694 63.885-142.694 142.694zM76.784 690.255c0 78.289 63.465 141.754 141.754 141.754s141.754-63.465 141.754-141.754c0-78.289-63.465-141.754-141.754-141.754-78.289 0-141.754 63.465-141.754 141.754zM668.881 692.837c0 78.289 63.465 141.754 141.754 141.754s141.754-63.465 141.754-141.754c0-78.289-63.465-141.754-141.754-141.754-78.289 0-141.754 63.465-141.754 141.754z"/></svg>