<?xml version="1.0" standalone="no"?><!DOCTYPE svg PUBLIC "-//W3C//DTD SVG 1.1//EN" "http://www.w3.org/Graphics/SVG/1.1/DTD/svg11.dtd"><svg t="1543550564434" class="icon" style="" viewBox="0 0 1024 1024" version="1.1" xmlns="http://www.w3.org/2000/svg" p-id="19320" xmlns:xlink="http://www.w3.org/1999/xlink" width="200" height="200"><defs><style type="text/css"></style></defs><path d="M779.795 507.524h62.496l0.928-154.572-109.881-64.324v84.566l47.159 26.188z" p-id="19321"></path><path d="M249.357 408.955v-10.32l40.902-22.217v-84.726l-100.703 57.339-0.948 157.527h60.082z" p-id="19322"></path><path d="M410.215 791.017v73.321l0.022 0.554 103.147 45.031 102.752-43.761v-74.985l-102.411 41.748z" p-id="19323"></path><path d="M368.667 237.475c0 78.807 63.885 142.694 142.694 142.694s142.694-63.885 142.694-142.694c0-78.807-63.885-142.694-142.694-142.694-78.807 0-142.694 63.885-142.694 142.694z" p-id="19324"></path><path d="M76.784 690.255c0 78.289 63.465 141.754 141.754 141.754s141.754-63.465 141.754-141.754c0 0 0 0 0 0 0-78.289-63.465-141.754-141.754-141.754-78.289 0-141.754 63.465-141.754 141.754 0 0 0 0 0 0z" p-id="19325"></path><path d="M668.881 692.837c0 78.289 63.465 141.754 141.754 141.754s141.754-63.465 141.754-141.754c0-78.289-63.465-141.754-141.754-141.754-78.289 0-141.754 63.465-141.754 141.754z" p-id="19326"></path></svg>