<?xml version="1.0" standalone="no"?><!DOCTYPE svg PUBLIC "-//W3C//DTD SVG 1.1//EN" "http://www.w3.org/Graphics/SVG/1.1/DTD/svg11.dtd"><svg t="1543462210774" class="icon" style="" viewBox="0 0 1024 1024" version="1.1" xmlns="http://www.w3.org/2000/svg" p-id="3926" xmlns:xlink="http://www.w3.org/1999/xlink" width="200" height="200"><defs><style type="text/css"></style></defs><path d="M409.6 862.72h30.72v10.24c-2.56 7.68-2.56 12.8-2.56 20.48v46.08H409.6c-181.76 0-327.68-84.48-327.68-192v-76.8c0 107.52 145.92 192 327.68 192z m0-133.12h30.72v10.24c-2.56 7.68-2.56 12.8-2.56 20.48v46.08H409.6c-181.76 0-327.68-84.48-327.68-192v-76.8c0 107.52 145.92 192 327.68 192z m0-266.24c181.76 0 327.68-84.48 327.68-189.44v74.24c0 46.08-28.16 87.04-71.68 120.32-46.08 12.8-87.04 30.72-120.32 53.76-40.96 10.24-87.04 17.92-138.24 17.92-181.76 0-327.68-84.48-327.68-192v-76.8c2.56 107.52 148.48 192 330.24 192z m0 133.12c23.04 0 43.52-2.56 64-2.56-17.92 23.04-28.16 51.2-33.28 79.36H409.6c-181.76 0-327.68-84.48-327.68-192v-76.8c0 107.52 145.92 192 327.68 192zM409.6 25.6c181.76 0 327.68 84.48 327.68 192S588.8 409.6 409.6 409.6C227.84 409.6 81.92 325.12 81.92 217.6S227.84 25.6 409.6 25.6z m153.6 970.24c-30.72 0-53.76-25.6-53.76-53.76v-153.6c0-30.72 25.6-53.76 53.76-53.76h10.24v-51.2c0-76.8 61.44-138.24 135.68-140.8s140.8 56.32 145.92 130.56c2.56 12.8-2.56 23.04-12.8 30.72-10.24 7.68-23.04 7.68-33.28 2.56-10.24-5.12-17.92-17.92-17.92-28.16-2.56-40.96-38.4-71.68-79.36-71.68-40.96 2.56-74.24 35.84-74.24 76.8v51.2h227.84c30.72 0 53.76 25.6 53.76 53.76v153.6c0 30.72-25.6 53.76-53.76 53.76H563.2z m291.84-174.08c0-12.8-10.24-23.04-23.04-23.04h-240.64c-12.8 0-23.04 10.24-23.04 23.04v87.04c0 12.8 10.24 23.04 23.04 23.04h240.64c12.8 0 23.04-10.24 23.04-23.04v-87.04z" p-id="3927"></path></svg>
