<svg class="icon" viewBox="0 0 1024 1024" xmlns="http://www.w3.org/2000/svg" width="200" height="200"><defs><style/></defs><path d="M409.6 862.72h30.72v10.24c-2.56 7.68-2.56 12.8-2.56 20.48v46.08H409.6c-181.76 0-327.68-84.48-327.68-192v-76.8c0 107.52 145.92 192 327.68 192zm0-133.12h30.72v10.24c-2.56 7.68-2.56 12.8-2.56 20.48v46.08H409.6c-181.76 0-327.68-84.48-327.68-192v-76.8c0 107.52 145.92 192 327.68 192zm0-266.24c181.76 0 327.68-84.48 327.68-189.44v74.24c0 46.08-28.16 87.04-71.68 120.32-46.08 12.8-87.04 30.72-120.32 53.76-40.96 10.24-87.04 17.92-138.24 17.92-181.76 0-327.68-84.48-327.68-192v-76.8c2.56 107.52 148.48 192 330.24 192zm0 133.12c23.04 0 43.52-2.56 64-2.56-17.92 23.04-28.16 51.2-33.28 79.36H409.6c-181.76 0-327.68-84.48-327.68-192v-76.8c0 107.52 145.92 192 327.68 192zm0-570.88c181.76 0 327.68 84.48 327.68 192s-148.48 192-327.68 192c-181.76 0-327.68-84.48-327.68-192s145.92-192 327.68-192zm153.6 970.24c-30.72 0-53.76-25.6-53.76-53.76v-153.6c0-30.72 25.6-53.76 53.76-53.76h10.24v-51.2c0-76.8 61.44-138.24 135.68-140.8s140.8 56.32 145.92 130.56c2.56 12.8-2.56 23.04-12.8 30.72s-23.04 7.68-33.28 2.56c-10.24-5.12-17.92-17.92-17.92-28.16-2.56-40.96-38.4-71.68-79.36-71.68-40.96 2.56-74.24 35.84-74.24 76.8v51.2h227.84c30.72 0 53.76 25.6 53.76 53.76v153.6c0 30.72-25.6 53.76-53.76 53.76H563.2zm291.84-174.08c0-12.8-10.24-23.04-23.04-23.04H591.36c-12.8 0-23.04 10.24-23.04 23.04v87.04c0 12.8 10.24 23.04 23.04 23.04H832c12.8 0 23.04-10.24 23.04-23.04v-87.04z"/></svg>