<svg class="icon" viewBox="0 0 1024 1024" xmlns="http://www.w3.org/2000/svg" width="200" height="200"><defs><style/></defs><path d="M401.27 16.445H67.94C30.627 16.445.376 46.55.376 83.675v335.252c0 37.133 30.25 67.23 67.565 67.23H401.27c37.315 0 67.574-30.097 67.574-67.23V83.675c0-37.126-30.26-67.23-67.574-67.23zm539.353 0H607.305c-37.314 0-67.57 30.104-67.57 67.23v335.252c0 37.133 30.256 67.23 67.57 67.23h333.318c37.325 0 67.575-30.097 67.575-67.23V83.675c0-37.126-30.25-67.23-67.575-67.23zM401.27 554.288H67.941c-37.314 0-67.565 30.107-67.565 67.237v335.25c0 37.129 30.25 67.226 67.565 67.226H401.27c37.315 0 67.574-30.097 67.574-67.227v-335.25c0-37.13-30.26-67.236-67.574-67.236zm539.354 0H607.305c-37.314 0-67.57 30.107-67.57 67.237v335.25c0 37.129 30.256 67.226 67.57 67.226h333.318c37.325 0 67.575-30.097 67.575-67.227v-335.25c0-37.13-30.25-67.236-67.575-67.236z"/></svg>