<svg class="icon" viewBox="0 0 1024 1024" xmlns="http://www.w3.org/2000/svg" width="200" height="200"><defs><style/></defs><path d="M390.438 803.642c40.437 13.092 74.868 32.035 100.569 48.966V222.139c-.148-.086-.294-.175-.441-.262-.255-.151-.512-.298-.763-.455-.332-.207-.659-.429-.988-.647-.253-.167-.508-.33-.756-.505-.335-.234-.663-.48-.995-.726-.233-.171-.466-.338-.695-.515-.359-.277-.71-.57-1.062-.86-.188-.156-.378-.305-.564-.463a45.083 45.083 0 0 1-1.207-1.081c-.117-.109-.238-.212-.356-.323-.075-.071-.156-.139-.231-.211-7.443-7.035-182.014-168.597-354.046-12.34v630.495c98.462-61.35 193.581-52.585 261.535-30.604zm504.655 30.587V203.732c-172.777-157.133-346.144 4.81-354.016 12.325a41.826 41.826 0 0 1-8.085 6.087v630.461c25.701-16.933 60.13-35.881 100.569-48.982 67.997-21.98 163.113-30.707 261.531 30.604zm71.666-678.091C844.232 33.711 717.957 40.602 633.56 67.918c-52.769 17.091-95.312 44.139-121.567 63.676-26.258-19.536-68.795-46.578-121.554-63.664-84.416-27.305-210.715-34.219-333.199 88.218a41.955 41.955 0 0 0-12.3 29.661v735.705c0 16.963 10.229 32.261 25.911 38.756a41.992 41.992 0 0 0 45.755-9.095c175.823-175.614 358.474-6.841 366.404.699a42.34 42.34 0 0 0 5.139 4.174c.075.052.154.101.231.153.489.332.979.658 1.478.969.201.124.404.238.604.359.383.229.766.461 1.157.677.292.163.593.313.889.468.306.16.607.325.915.477.369.181.743.349 1.115.519.244.112.485.229.732.336.425.185.855.353 1.285.524.199.078.396.164.596.239.475.178.953.341 1.431.502.16.053.32.114.479.166a41.8 41.8 0 0 0 1.551.461c.129.036.257.078.386.113a44.82 44.82 0 0 0 1.645.405c.105.022.208.052.313.075.571.125 1.145.235 1.722.335.086.015.17.035.256.049.599.102 1.204.188 1.807.262.061.006.121.018.181.025.62.074 1.242.134 1.863.181.047.003.091.007.138.013.633.047 1.266.075 1.899.093l.108.004a40.5 40.5 0 0 0 1.909.002h.102c.641-.015 1.28-.045 1.919-.089l.089-.004c.63-.045 1.258-.105 1.883-.177.041-.004.083-.006.122-.013.608-.071 1.215-.16 1.82-.259.059-.011.121-.016.18-.025.57-.096 1.137-.207 1.706-.326.096-.019.193-.036.288-.057a41.143 41.143 0 0 0 1.578-.381c.132-.035.268-.063.4-.099.481-.129.96-.274 1.438-.422.174-.053.348-.101.522-.157.429-.139.853-.291 1.279-.443.22-.078.441-.151.659-.234.371-.141.739-.294 1.108-.445.269-.11.54-.215.804-.33.314-.138.625-.287.937-.431.315-.147.633-.288.945-.443.261-.13.522-.272.782-.407.356-.185.711-.368 1.062-.564.218-.122.431-.254.645-.379.387-.225.778-.45 1.159-.69.18-.113.357-.235.534-.351.411-.267.818-.531 1.219-.813.159-.11.313-.229.471-.342.414-.298.827-.598 1.232-.914.148-.115.292-.238.439-.357.405-.324.807-.651 1.205-.991.156-.134.307-.275.461-.414.377-.334.751-.67 1.119-1.02.033-.032.066-.058.098-.09 7.686-7.311 189.374-177.396 366.346-.615a41.955 41.955 0 0 0 29.684 12.292 42.014 42.014 0 0 0 16.071-3.197c15.682-6.495 25.911-21.794 25.911-38.756V185.797a41.926 41.926 0 0 0-12.3-29.661zm-837.852 47.615c172.031-156.256 346.603 5.305 354.046 12.34.075.071.156.14.231.211.116.11.237.215.356.323.398.368.799.733 1.207 1.081.185.159.377.308.564.463.353.29.704.582 1.062.86.228.177.463.343.695.515.33.244.658.492.995.726.251.174.505.336.756.505.327.218.654.438.988.647.253.158.509.304.763.455.147.087.292.177.441.262v630.47c-25.701-16.931-60.13-35.874-100.569-48.966-67.955-21.98-163.073-30.747-261.532 30.605V203.753zm404.085 18.39a41.877 41.877 0 0 0 8.085-6.087c7.872-7.515 181.238-169.458 354.016-12.325v630.497c-98.418-61.313-193.534-52.586-261.532-30.605-40.437 13.102-74.868 32.048-100.569 48.982v-630.46z"/></svg>