<?xml version="1.0" standalone="no"?><!DOCTYPE svg PUBLIC "-//W3C//DTD SVG 1.1//EN" "http://www.w3.org/Graphics/SVG/1.1/DTD/svg11.dtd"><svg t="1545124449736" class="icon" style="" viewBox="0 0 1024 1024" version="1.1" xmlns="http://www.w3.org/2000/svg" p-id="9450" xmlns:xlink="http://www.w3.org/1999/xlink" width="200" height="200"><defs><style type="text/css"></style></defs><path d="M390.438 803.642c40.437 13.092 74.868 32.035 100.569 48.966v-630.469c-0.148-0.086-0.294-0.175-0.441-0.262-0.255-0.151-0.512-0.298-0.763-0.455-0.332-0.207-0.659-0.429-0.988-0.647-0.253-0.167-0.508-0.33-0.756-0.505-0.335-0.234-0.663-0.48-0.995-0.726-0.233-0.171-0.466-0.338-0.695-0.515-0.359-0.277-0.71-0.57-1.062-0.86-0.188-0.156-0.378-0.305-0.564-0.463-0.409-0.349-0.807-0.714-1.207-1.081-0.117-0.109-0.238-0.212-0.356-0.323-0.075-0.071-0.156-0.139-0.231-0.211-7.443-7.035-182.014-168.597-354.046-12.34v630.495c98.462-61.35 193.581-52.585 261.535-30.604zM895.093 834.229v-630.497c-172.777-157.133-346.144 4.81-354.016 12.325-2.492 2.399-5.21 4.425-8.085 6.087v630.461c25.701-16.933 60.13-35.881 100.569-48.982 67.997-21.98 163.113-30.707 261.531 30.604zM966.759 156.138c-122.527-122.427-248.802-115.536-333.199-88.22-52.769 17.091-95.312 44.139-121.567 63.676-26.258-19.536-68.795-46.578-121.554-63.664-84.416-27.305-210.715-34.219-333.199 88.218-7.871 7.868-12.3 18.542-12.3 29.661v735.705c0 16.963 10.229 32.261 25.911 38.756 5.205 2.15 10.66 3.197 16.071 3.197 10.906 0 21.648-4.262 29.684-12.292 175.823-175.614 358.474-6.841 366.404 0.699 1.627 1.549 3.348 2.937 5.139 4.174 0.075 0.052 0.154 0.101 0.231 0.153 0.489 0.332 0.979 0.658 1.478 0.969 0.201 0.124 0.404 0.238 0.604 0.359 0.383 0.229 0.766 0.461 1.157 0.677 0.292 0.163 0.593 0.313 0.889 0.468 0.306 0.16 0.607 0.325 0.915 0.477 0.369 0.181 0.743 0.349 1.115 0.519 0.244 0.112 0.485 0.229 0.732 0.336 0.425 0.185 0.855 0.353 1.285 0.524 0.199 0.078 0.396 0.164 0.596 0.239 0.475 0.178 0.953 0.341 1.431 0.502 0.16 0.053 0.32 0.114 0.479 0.166 0.514 0.166 1.031 0.315 1.551 0.461 0.129 0.036 0.257 0.078 0.386 0.113 0.546 0.148 1.095 0.278 1.645 0.405 0.105 0.022 0.208 0.052 0.313 0.075 0.571 0.125 1.145 0.235 1.722 0.335 0.086 0.015 0.17 0.035 0.256 0.049 0.599 0.102 1.204 0.188 1.807 0.262 0.061 0.006 0.121 0.018 0.181 0.025 0.62 0.074 1.242 0.134 1.863 0.181 0.047 0.003 0.091 0.007 0.138 0.013 0.633 0.047 1.266 0.075 1.899 0.093 0.036 0.001 0.071 0.003 0.108 0.004 0.636 0.016 1.274 0.016 1.909 0.002 0.034-0.001 0.067 0 0.102 0 0.641-0.015 1.28-0.045 1.919-0.089 0.031-0.002 0.058-0.002 0.089-0.004 0.63-0.045 1.258-0.105 1.883-0.177 0.041-0.004 0.083-0.006 0.122-0.013 0.608-0.071 1.215-0.16 1.82-0.259 0.059-0.011 0.121-0.016 0.18-0.025 0.57-0.096 1.137-0.207 1.706-0.326 0.096-0.019 0.193-0.036 0.288-0.057 0.528-0.114 1.054-0.246 1.578-0.381 0.132-0.035 0.268-0.063 0.4-0.099 0.481-0.129 0.96-0.274 1.438-0.422 0.174-0.053 0.348-0.101 0.522-0.157 0.429-0.139 0.853-0.291 1.279-0.443 0.22-0.078 0.441-0.151 0.659-0.234 0.371-0.141 0.739-0.294 1.108-0.445 0.269-0.11 0.54-0.215 0.804-0.33 0.314-0.138 0.625-0.287 0.937-0.431 0.315-0.147 0.633-0.288 0.945-0.443 0.261-0.13 0.522-0.272 0.782-0.407 0.356-0.185 0.711-0.368 1.062-0.564 0.218-0.122 0.431-0.254 0.645-0.379 0.387-0.225 0.778-0.45 1.159-0.69 0.18-0.113 0.357-0.235 0.534-0.351 0.411-0.267 0.818-0.531 1.219-0.813 0.159-0.11 0.313-0.229 0.471-0.342 0.414-0.298 0.827-0.598 1.232-0.914 0.148-0.115 0.292-0.238 0.439-0.357 0.405-0.324 0.807-0.651 1.205-0.991 0.156-0.134 0.307-0.275 0.461-0.414 0.377-0.334 0.751-0.67 1.119-1.020 0.033-0.032 0.066-0.058 0.098-0.090 7.686-7.311 189.374-177.396 366.346-0.615 8.038 8.031 18.757 12.292 29.684 12.292 5.411 0 10.865-1.045 16.071-3.197 15.682-6.495 25.911-21.794 25.911-38.756v-735.715c0.001-11.123-4.426-21.796-12.3-29.661zM128.907 203.753c172.031-156.256 346.603 5.305 354.046 12.34 0.075 0.071 0.156 0.14 0.231 0.211 0.116 0.11 0.237 0.215 0.356 0.323 0.398 0.368 0.799 0.733 1.207 1.081 0.185 0.159 0.377 0.308 0.564 0.463 0.353 0.29 0.704 0.582 1.062 0.86 0.228 0.177 0.463 0.343 0.695 0.515 0.33 0.244 0.658 0.492 0.995 0.726 0.251 0.174 0.505 0.336 0.756 0.505 0.327 0.218 0.654 0.438 0.988 0.647 0.253 0.158 0.509 0.304 0.763 0.455 0.147 0.087 0.292 0.177 0.441 0.262v630.47c-25.701-16.931-60.13-35.874-100.569-48.966-67.955-21.98-163.073-30.747-261.532 30.605v-630.497zM532.992 222.143c2.875-1.662 5.594-3.69 8.085-6.087 7.872-7.515 181.238-169.458 354.016-12.325v630.497c-98.418-61.313-193.534-52.586-261.532-30.605-40.437 13.102-74.868 32.048-100.569 48.982v-630.46z" p-id="9451"></path></svg>