<svg class="icon" viewBox="0 0 1042 1024" xmlns="http://www.w3.org/2000/svg" width="203.516" height="200"><defs><style/></defs><path d="M492.94.317c25.191-.357 54.735-1.543 75.166 4.996 9.23 56.652 27.16 70.271 37.381 133.037 37.89 5.605 63.624 32.146 96.392 38.769 50.379-36.923 71.954-33.504 117.446-66.828a314.078 314.078 0 0 1 85.06 85.981C871.42 242.256 874.211 263.55 837.7 314.48l20.814 43.2q9.852 28.245 19.717 56.493c61.698 9.97 75.267 28.042 130.981 37.04a1082.814 1082.814 0 0 1 0 121.97c-56.345 9.332-70.746 26.723-133.172 37.058-4.112 38.727-30.413 64.612-38.34 97.482 36.511 51.69 33.72 74.754 66.685 121.402l-20.772 24.994a358.136 358.136 0 0 1-64.288 59.986c-46.152-33.638-68.539-31.734-119.636-69.022-29.535 17.303-61.656 27.024-96.393 40.984-9.856 62.754-27.277 77.37-36.161 134.026-36.784.841-85.7 8.872-120.68-1.01-8.901-56.639-26.07-71.356-35.939-134.134-36.447-5.307-68.089-24.809-96.388-39.879-38.684 28.059-51.299 18.703-86.254 44.03-7.413 5.213-27.815 25.943-34.614 22.995-35.321-16.588-56.665-58.367-84.072-83.979 33.294-46.653 31.15-69.826 68.022-121.52-14.503-29.947-32.823-59.844-39.433-97.482-62.43-10.34-77.059-27.621-133.429-36.948-.63-21.743-10.062-107.438 1.98-120.973 55.71-9.331 69.75-27.811 131.449-38.147 5.428-35.232 23.236-70.053 39.433-96.375-28.114-39.135-18.922-51.106-44.286-86.427-5.802-8.41-26.772-31.393-19.763-37.99 11.698-25.566 58.027-65.832 81.104-81.995 45.833 33.323 68.038 29.905 118.783 66.827l70.103-32.125 27.382-7.753C420.39 74.44 437.57 60.93 446.472 4.283zm.391 317.686c-17.324 6.816-36.75 5.336-52.49 11.576a196.485 196.485 0 0 0-113.177 114.948c-44.206 114.267 32.68 215.457 110.718 246.438 22.378 8.885 56.345 18.973 89.395 13.233 77.92-13.548 130.149-52.666 157.464-116.605 47.308-110.73-20.49-219.044-97.595-253.053-26.6-11.731-55.235-16.74-94.315-16.537z"/></svg>