<?xml version="1.0" standalone="no"?><!DOCTYPE svg PUBLIC "-//W3C//DTD SVG 1.1//EN" "http://www.w3.org/Graphics/SVG/1.1/DTD/svg11.dtd"><svg t="1545216499400" class="icon" style="" viewBox="0 0 1024 1024" version="1.1" xmlns="http://www.w3.org/2000/svg" p-id="12181" xmlns:xlink="http://www.w3.org/1999/xlink" width="200" height="200"><defs><style type="text/css"></style></defs><path d="M451.575 114.623c20.395-6.29 41.206-8.007 60.433-8.007 26.421 0 55.85 3.251 83.083 17.163 51.987 26.553 96.009 91.985 96.009 247.897 0 51.794-13.993 104.616-38.859 150.323a311.64 311.64 0 0 1-7.708 13.313c23.286 0.935 45.046 10.43 61.621 27.005l12.101 12.101c36.104-60.572 56.102-131.386 56.102-202.742 0-143.942-35.668-231.008-86.294-282.102C637.435 38.48 571.851 23.37 512.008 23.37h-0.011c-108.467 0-235.805 49.63-258.719 273.2-2.378 23.128-3.628 48.116-3.628 75.106 0 5.467 0.122 10.934 0.345 16.391 0.509 11.859 1.606 23.677 3.182 35.435 2.052 15.273 4.948 30.424 8.749 45.332 2.53 9.958 5.487 19.795 8.77 29.52 0.193 0.58 0.355 1.159 0.559 1.738 0.549 1.585 1.169 3.15 1.728 4.735 14.064 39.336 34.144 76.366 59.6 109.026-0.376 0.742-0.763 1.474-1.139 2.216-0.69 1.331-1.372 2.672-2.073 3.983-0.314 0.579-0.619 1.138-0.935 1.707a217.023 217.023 0 0 1-2.51 4.491 123.05 123.05 0 0 1-1.605 2.724c-0.163 0.284-0.336 0.569-0.509 0.854a86.615 86.615 0 0 1-2.632 4.014l0.031 0.011c-0.143 0.192-0.295 0.447-0.427 0.63l-30.059 8.2a42.532 42.532 0 0 0-4.878 1.656c-29.205 11.971-60.503 25.436-90.786 38.442-19.348 8.313-38.513 16.554-56.927 24.327-8.353 3.526-17.438 6.677-27.051 10.01-39.143 13.554-87.838 30.433-106.576 84.728a41.692 41.692 0 0 0-2.276 13.576c0 11.838-0.447 30.008-0.935 50.098C0.524 897.844-0.35 934.467 0.158 959.832c0.447 22.661 18.942 40.8 41.603 40.8h512.184c-3.755-10.154-5.731-20.995-5.731-32.145 0-18.453 5.371-36.079 15.365-51.102H83.464c0.264-16.238 0.671-33.615 1.057-49.874 0.407-16.401 0.752-31.563 0.895-43.279 6.829-11.401 23.128-18.139 52.923-28.463 10.466-3.628 21.299-7.378 32.172-11.971 18.556-7.824 37.904-16.147 57.435-24.541 29.124-12.519 59.224-25.455 87.128-36.928l38.046-10.396a41.323 41.323 0 0 0 12.62-5.863c15.456-10.629 27.447-28.555 38.32-49.265 0.955-1.809 1.87-3.719 2.805-5.559 0.519-1.016 1.026-2.032 1.534-3.048 3.1-6.22 6.158-12.551 9.166-19.064l1.87-4.023c2.602-5.579 3.841-11.534 3.852-17.448 0-0.122 0.021-0.243 0.021-0.355-0.011-1.575-0.184-3.13-0.366-4.685-0.051-0.447-0.041-0.895-0.112-1.342-0.183-1.219-0.528-2.418-0.822-3.617-0.184-0.752-0.295-1.524-0.519-2.266-0.406-1.332-0.966-2.622-1.515-3.912-0.233-0.57-0.406-1.17-0.67-1.738a41.883 41.883 0 0 0-6.859-10.232c-43.584-47.813-71.804-113.274-78.175-179.479a297.958 297.958 0 0 1-1.372-28.361c0-22.275 0.895-42.7 2.592-61.428 11.835-131.118 62.553-179.123 116.085-195.625z" p-id="12182"></path><path d="M871.238 798.112l140.308-140.309c16.605-16.604 16.605-43.526 0-60.131-16.604-16.605-43.526-16.604-60.131 0L811.106 737.98 670.798 597.673c-16.604-16.604-43.526-16.604-60.131 0-16.605 16.604-16.605 43.526 0 60.131l140.308 140.309L610.667 938.42c-16.605 16.605-16.605 43.527 0 60.132 16.604 16.605 43.526 16.605 60.132 0l140.308-140.308 140.308 140.308c16.605 16.605 43.527 16.605 60.132 0 16.605-16.604 16.605-43.526 0-60.132L871.238 798.112z" p-id="12183"></path></svg>
