<svg class="icon" viewBox="0 0 1024 1024" xmlns="http://www.w3.org/2000/svg" width="200" height="200"><defs><style/></defs><path d="M199.358 873.843H398.22V712.171c-23.054-5.51-39.764-19.825-39.764-37.099 0-17.25 16.71-31.566 39.764-37.076V476.324H199.358v397.52zm477.34-309.232a256.237 256.237 0 0 1 39.763-15.67V416.668h113.916l-412.242-292.75L5.871 416.669h113.893v457.175h39.808V436.56h517.126v128.051zM962.673 765.46a177.975 177.975 0 0 0-27.75-60.13l31.092-51.912-27.503-27.593-53.717 32.29a173.978 173.978 0 0 0-56.54-22.422l-15.535-62.005h-38.906l-15.535 62.005a170.343 170.343 0 0 0-56.088 22.67l-54.192-32.538-27.502 27.593 31.25 52.137a175.943 175.943 0 0 0-27.976 59.95l-55.366 13.841v38.996l51.414 12.87a175.582 175.582 0 0 0 26.125 70.608l-25.447 42.473 27.502 27.57 40.53-24.341c21.587 16.19 46.674 27.931 74.334 32.786l10.951 43.715h38.906l10.95-43.76a175.31 175.31 0 0 0 74.198-32.786l40.622 24.409 27.502-27.57-25.628-42.812c13.322-20.932 22.896-44.528 26.35-70.269l51.37-12.87v-38.996l-55.411-13.91zM793.3 905.117a97.432 97.432 0 0 1-97.342-97.478c0-53.83 43.579-97.455 97.342-97.455s97.364 43.647 97.364 97.455a97.455 97.455 0 0 1-97.364 97.478zM636.89 588.907V476.324H438.006v161.672c23.054 5.51 39.74 19.825 39.74 37.076s-16.686 31.59-39.74 37.1v161.671h104.838c-7.135-23.934-12.193-48.772-12.193-75.033 0-86.165 42.134-162.01 106.239-209.903z"/></svg>